<mxfile host="app.diagrams.net" agent="Mozilla/5.0 (Windows NT 10.0; Win64; x64) AppleWebKit/537.36 (KHTML, like Gecko) Chrome/135.0.0.0 Safari/537.36" version="26.2.6">
  <diagram name="Page-1" id="MayAqKl3MtsWNu2FUhc7">
    <mxGraphModel dx="1044" dy="567" grid="1" gridSize="10" guides="1" tooltips="1" connect="1" arrows="1" fold="1" page="1" pageScale="1" pageWidth="850" pageHeight="1100" math="0" shadow="0">
      <root>
        <mxCell id="0" />
        <mxCell id="1" parent="0" />
        <mxCell id="vcOo5HoCGuvCiwE6dyAs-5" style="edgeStyle=orthogonalEdgeStyle;rounded=0;orthogonalLoop=1;jettySize=auto;html=1;exitX=0;exitY=0;exitDx=0;exitDy=0;entryX=0.5;entryY=0;entryDx=0;entryDy=0;" edge="1" parent="1" source="vcOo5HoCGuvCiwE6dyAs-1" target="vcOo5HoCGuvCiwE6dyAs-2">
          <mxGeometry relative="1" as="geometry">
            <Array as="points">
              <mxPoint x="388" y="260" />
              <mxPoint x="200" y="260" />
            </Array>
          </mxGeometry>
        </mxCell>
        <mxCell id="vcOo5HoCGuvCiwE6dyAs-1" value="&lt;font face=&quot;Times New Roman&quot;&gt;&lt;b&gt;Chat&lt;/b&gt;&lt;/font&gt;" style="ellipse;whiteSpace=wrap;html=1;" vertex="1" parent="1">
          <mxGeometry x="370" y="260" width="120" height="80" as="geometry" />
        </mxCell>
        <mxCell id="vcOo5HoCGuvCiwE6dyAs-8" style="edgeStyle=orthogonalEdgeStyle;rounded=0;orthogonalLoop=1;jettySize=auto;html=1;exitX=0.5;exitY=1;exitDx=0;exitDy=0;entryX=0;entryY=1;entryDx=0;entryDy=0;" edge="1" parent="1" source="vcOo5HoCGuvCiwE6dyAs-2" target="vcOo5HoCGuvCiwE6dyAs-1">
          <mxGeometry relative="1" as="geometry">
            <Array as="points">
              <mxPoint x="200" y="350" />
              <mxPoint x="388" y="350" />
            </Array>
          </mxGeometry>
        </mxCell>
        <mxCell id="vcOo5HoCGuvCiwE6dyAs-2" value="&lt;font face=&quot;Times New Roman&quot;&gt;&lt;b&gt;Client&lt;/b&gt;&lt;/font&gt;" style="rounded=0;whiteSpace=wrap;html=1;" vertex="1" parent="1">
          <mxGeometry x="140" y="280" width="120" height="40" as="geometry" />
        </mxCell>
        <mxCell id="vcOo5HoCGuvCiwE6dyAs-9" style="edgeStyle=orthogonalEdgeStyle;rounded=0;orthogonalLoop=1;jettySize=auto;html=1;entryX=1;entryY=1;entryDx=0;entryDy=0;" edge="1" parent="1" source="vcOo5HoCGuvCiwE6dyAs-3" target="vcOo5HoCGuvCiwE6dyAs-1">
          <mxGeometry relative="1" as="geometry">
            <Array as="points">
              <mxPoint x="650" y="350" />
              <mxPoint x="472" y="350" />
            </Array>
          </mxGeometry>
        </mxCell>
        <mxCell id="vcOo5HoCGuvCiwE6dyAs-3" value="&lt;font face=&quot;Times New Roman&quot;&gt;&lt;b&gt;Service Provider&lt;/b&gt;&lt;/font&gt;" style="rounded=0;whiteSpace=wrap;html=1;" vertex="1" parent="1">
          <mxGeometry x="590" y="280" width="120" height="40" as="geometry" />
        </mxCell>
        <mxCell id="vcOo5HoCGuvCiwE6dyAs-6" style="edgeStyle=orthogonalEdgeStyle;rounded=0;orthogonalLoop=1;jettySize=auto;html=1;exitX=1;exitY=0;exitDx=0;exitDy=0;entryX=0.567;entryY=-0.01;entryDx=0;entryDy=0;entryPerimeter=0;" edge="1" parent="1" source="vcOo5HoCGuvCiwE6dyAs-1" target="vcOo5HoCGuvCiwE6dyAs-3">
          <mxGeometry relative="1" as="geometry">
            <Array as="points">
              <mxPoint x="472" y="260" />
              <mxPoint x="658" y="260" />
            </Array>
          </mxGeometry>
        </mxCell>
        <mxCell id="vcOo5HoCGuvCiwE6dyAs-11" value="&lt;b&gt;&lt;font face=&quot;Times New Roman&quot;&gt;Receive Message&lt;/font&gt;&lt;/b&gt;" style="text;html=1;align=center;verticalAlign=middle;whiteSpace=wrap;rounded=0;" vertex="1" parent="1">
          <mxGeometry x="240" y="230" width="110" height="30" as="geometry" />
        </mxCell>
        <mxCell id="vcOo5HoCGuvCiwE6dyAs-13" value="&lt;b style=&quot;forced-color-adjust: none; color: rgb(0, 0, 0); font-family: Helvetica; font-size: 12px; font-style: normal; font-variant-ligatures: normal; font-variant-caps: normal; letter-spacing: normal; orphans: 2; text-align: center; text-indent: 0px; text-transform: none; widows: 2; word-spacing: 0px; -webkit-text-stroke-width: 0px; white-space: normal; background-color: rgb(236, 236, 236); text-decoration-thickness: initial; text-decoration-style: initial; text-decoration-color: initial;&quot;&gt;&lt;font face=&quot;Times New Roman&quot; style=&quot;forced-color-adjust: none;&quot;&gt;Receive Message&lt;/font&gt;&lt;/b&gt;" style="text;whiteSpace=wrap;html=1;" vertex="1" parent="1">
          <mxGeometry x="520" y="230" width="120" height="40" as="geometry" />
        </mxCell>
        <mxCell id="vcOo5HoCGuvCiwE6dyAs-14" value="&lt;b style=&quot;color: rgb(0, 0, 0); text-align: center; background-color: rgb(236, 236, 236);&quot;&gt;&lt;font face=&quot;Times New Roman&quot;&gt;Send Message&lt;/font&gt;&lt;/b&gt;" style="text;whiteSpace=wrap;html=1;" vertex="1" parent="1">
          <mxGeometry x="250" y="350" width="120" height="40" as="geometry" />
        </mxCell>
        <mxCell id="vcOo5HoCGuvCiwE6dyAs-15" value="&lt;b data-mx-given-colors=&quot;{&amp;quot;color&amp;quot;:&amp;quot;rgb(0, 0, 0)&amp;quot;,&amp;quot;background-color&amp;quot;:&amp;quot;rgb(236, 236, 236)&amp;quot;}&quot; style=&quot;forced-color-adjust: none; color: light-dark(rgb(0, 0, 0), rgb(237, 237, 237)); font-family: Helvetica; font-size: 12px; font-style: normal; font-variant-ligatures: normal; font-variant-caps: normal; letter-spacing: normal; orphans: 2; text-indent: 0px; text-transform: none; widows: 2; word-spacing: 0px; -webkit-text-stroke-width: 0px; white-space: normal; text-decoration-thickness: initial; text-decoration-style: initial; text-decoration-color: initial; text-align: center; background-color: light-dark(rgb(236, 236, 236), rgb(34, 34, 34));&quot;&gt;&lt;font face=&quot;Times New Roman&quot; style=&quot;forced-color-adjust: none;&quot;&gt;Send Message&lt;/font&gt;&lt;/b&gt;" style="text;whiteSpace=wrap;html=1;" vertex="1" parent="1">
          <mxGeometry x="525" y="350" width="110" height="20" as="geometry" />
        </mxCell>
        <mxCell id="vcOo5HoCGuvCiwE6dyAs-16" value="&lt;font face=&quot;Times New Roman&quot;&gt;&lt;b&gt;Chat Database&lt;/b&gt;&lt;/font&gt;" style="shape=partialRectangle;whiteSpace=wrap;html=1;top=0;bottom=0;fillColor=none;direction=south;" vertex="1" parent="1">
          <mxGeometry x="370" y="420" width="140" height="40" as="geometry" />
        </mxCell>
        <mxCell id="vcOo5HoCGuvCiwE6dyAs-19" style="edgeStyle=orthogonalEdgeStyle;rounded=0;orthogonalLoop=1;jettySize=auto;html=1;exitX=0;exitY=0.75;exitDx=0;exitDy=0;entryX=0.293;entryY=0.995;entryDx=0;entryDy=0;entryPerimeter=0;" edge="1" parent="1" source="vcOo5HoCGuvCiwE6dyAs-16" target="vcOo5HoCGuvCiwE6dyAs-1">
          <mxGeometry relative="1" as="geometry" />
        </mxCell>
        <mxCell id="vcOo5HoCGuvCiwE6dyAs-20" style="edgeStyle=orthogonalEdgeStyle;rounded=0;orthogonalLoop=1;jettySize=auto;html=1;exitX=0.5;exitY=1;exitDx=0;exitDy=0;entryX=-0.01;entryY=0.571;entryDx=0;entryDy=0;entryPerimeter=0;" edge="1" parent="1" source="vcOo5HoCGuvCiwE6dyAs-1" target="vcOo5HoCGuvCiwE6dyAs-16">
          <mxGeometry relative="1" as="geometry" />
        </mxCell>
      </root>
    </mxGraphModel>
  </diagram>
</mxfile>
